<svg xmlns="http://www.w3.org/2000/svg" width="300" height="230" viewBox="0 0 300 230">
  <style>
    .sans { font-family: 'Segoe UI', -apple-system, BlinkMacSystemFont, Helvetica, Arial, sans-serif; }
    .mono { font-family: ui-monospace, SFMono-Regular, Menlo, Consolas, monospace; }
  </style>
  <rect width="300" height="230" rx="16" fill="#111111"/>
  <rect x="0.5" y="0.5" width="299" height="229" rx="16" fill="none" stroke="#262626"/>
  <g fill="none" stroke="#FF7A45" stroke-width="2.5" stroke-linecap="round" stroke-linejoin="round">
    <path d="M28 24 h22 l12 12 v30 h-34 z"/>
    <path d="M50 24 v12 h12"/>
    <path d="M35 46 h18 M35 54 h12"/>
    <path d="M70 40 h14 a4 4 0 0 1 4 4 v10 a4 4 0 0 1 -4 4 h-6 l-6 5 v-5 h-2 a4 4 0 0 1 -4 -4 v-10 a4 4 0 0 1 4 -4 z" opacity="0.6"/>
  </g>
  <text x="24" y="108" class="sans" font-size="24" font-weight="700" fill="#EDEDED">ChatPDF</text>
  <text x="24" y="130" class="mono" font-size="11" fill="#FF7A45" letter-spacing="1">DOCUMENT RAG</text>
  <text x="24" y="160" class="sans" font-size="14" fill="#A3A3A3">Chat with long PDFs and get</text>
  <text x="24" y="179" class="sans" font-size="14" fill="#A3A3A3">answers with exact citations.</text>
  <text x="24" y="208" class="mono" font-size="12" fill="#8A8A8A">view repo ↗</text>
</svg>
